<svg version="1.1" id="Layer_1" xmlns="http://www.w3.org/2000/svg" xmlns:xlink="http://www.w3.org/1999/xlink" x="0px" y="0px"
	 width="100%" viewBox="0 0 258 258" enable-background="new 0 0 258 258" xml:space="preserve">
<path fill="#000000" opacity="1.000000" stroke="none" 
	d="
M50.000000,1.000000 
	C119.621613,1.000000 189.243225,1.000000 258.932434,1.000000 
	C258.932434,86.899284 258.932434,172.798645 258.932434,259.000000 
	C189.312729,259.000000 119.625023,259.000000 49.142647,258.713593 
	C48.557125,258.168549 48.713123,257.812408 48.983047,257.665283 
	C61.977535,250.582474 75.071213,243.676346 87.964706,236.414719 
	C108.703949,224.734344 129.319595,212.834290 149.971497,200.999207 
	C159.310532,195.647232 168.611237,190.228394 178.298584,184.905319 
	C197.209076,174.628204 215.989990,164.685211 234.186417,153.767975 
	C242.778198,148.613190 247.269501,139.475266 246.731689,129.575226 
	C246.101349,117.971535 239.398880,109.392403 229.181244,103.594734 
	C212.019363,93.856789 194.953888,83.948959 177.514999,73.901794 
	C167.699829,68.433777 158.174850,63.251812 148.743088,57.905407 
	C119.020927,41.057358 89.323120,24.166252 59.647884,7.235704 
	C56.326996,5.341045 53.211010,3.087250 50.000000,1.000000 
z"/>
<path fill="#34A853" opacity="1.000000" stroke="none" 
	d="
M49.532394,1.000000 
	C53.211010,3.087250 56.326996,5.341045 59.647884,7.235704 
	C89.323120,24.166252 119.020927,41.057358 148.743088,57.905407 
	C158.174850,63.251812 167.699829,68.433777 177.327301,74.228058 
	C176.317734,75.957581 175.174225,77.161171 174.006531,78.340813 
	C156.985077,95.536293 139.960419,112.728584 122.727814,129.954559 
	C122.519104,129.987488 122.101479,130.052017 121.801880,129.891113 
	C120.054092,128.356567 118.582642,127.006516 117.161110,125.605804 
	C82.420815,91.374390 47.685829,57.137581 12.972712,22.520678 
	C14.980368,12.173967 22.063198,6.969666 30.651031,3.109408 
	C31.565344,2.698422 32.223183,1.716865 33.000000,1.000000 
	C38.354931,1.000000 43.709858,1.000000 49.532394,1.000000 
z"/>
<path fill="#EA4335" opacity="1.000000" stroke="none" 
	d="
M122.101479,130.052017 
	C122.101479,130.052017 122.519104,129.987488 122.872536,130.262634 
	C126.851189,134.179321 130.455505,137.841949 134.105301,141.458710 
	C148.705643,155.926849 163.320099,170.380753 177.929337,184.839905 
	C168.611237,190.228394 159.310532,195.647232 149.971497,200.999207 
	C129.319595,212.834290 108.703949,224.734344 87.964706,236.414719 
	C75.071213,243.676346 61.977535,250.582474 48.983047,257.665283 
	C48.713123,257.812408 48.557125,258.168549 48.673988,258.713593 
	C43.977909,259.000000 38.955814,259.000000 33.793335,258.714600 
	C33.022472,257.962036 32.458836,257.301575 31.751411,257.057037 
	C22.343319,253.804871 16.150572,247.376541 13.059290,237.833313 
	C48.536057,203.016006 83.775887,168.448044 118.991692,133.855621 
	C120.153069,132.714783 121.070389,131.325485 122.101479,130.052017 
z"/>
<path fill="#000000" opacity="1.000000" stroke="none" 
	d="
M12.818602,238.078842 
	C16.150572,247.376541 22.343319,253.804871 31.751411,257.057037 
	C32.458836,257.301575 33.022472,257.962036 33.326473,258.714600 
	C22.347841,259.000000 11.695682,259.000000 1.047987,259.000000 
	C1.052451,172.999985 1.052451,86.999977 1.052451,1.000000 
	C11.424163,1.000000 21.743423,1.000000 32.531342,1.000000 
	C32.223183,1.716865 31.565344,2.698422 30.651031,3.109408 
	C22.063198,6.969666 14.980368,12.173967 12.608484,22.765240 
	C12.147920,24.215555 12.010155,25.040237 12.010032,25.864939 
	C11.999683,95.390015 11.995845,164.915085 12.033651,234.440155 
	C12.034311,235.653183 12.545588,236.865952 12.818602,238.078842 
z"/>
<path fill="#FBBC04" opacity="1.000000" stroke="none" 
	d="
M178.298584,184.905319 
	C163.320099,170.380753 148.705643,155.926849 134.105301,141.458710 
	C130.455505,137.841949 126.851189,134.179321 123.081238,130.229706 
	C139.960419,112.728584 156.985077,95.536293 174.006531,78.340813 
	C175.174225,77.161171 176.317734,75.957581 177.660156,74.438866 
	C194.953888,83.948959 212.019363,93.856789 229.181244,103.594734 
	C239.398880,109.392403 246.101349,117.971535 246.731689,129.575226 
	C247.269501,139.475266 242.778198,148.613190 234.186417,153.767975 
	C215.989990,164.685211 197.209076,174.628204 178.298584,184.905319 
z"/>
<path fill="#4285F3" opacity="1.000000" stroke="none" 
	d="
M13.059290,237.833313 
	C12.545588,236.865952 12.034311,235.653183 12.033651,234.440155 
	C11.995845,164.915085 11.999683,95.390015 12.010032,25.864939 
	C12.010155,25.040237 12.147920,24.215555 12.585661,23.146303 
	C47.685829,57.137581 82.420815,91.374390 117.161110,125.605804 
	C118.582642,127.006516 120.054092,128.356567 121.801880,129.891113 
	C121.070389,131.325485 120.153069,132.714783 118.991692,133.855621 
	C83.775887,168.448044 48.536057,203.016006 13.059290,237.833313 
z"/>
</svg>